<svg xmlns="http://www.w3.org/2000/svg" width="16" height="16">
  <path d="M 4 0 C 2.892 0 2 0.892 2 2 L 2 11 C 2 12.108 2.892 13 4 13 L 7 13 L 7 15 L 3 15 L 3 16 L 10 16 L 10 15 L 9.2910156 15 L 9.2910156 13 L 10 13 L 10 11 L 4 11 L 4 7 L 12 7 L 12 10 L 14 10 L 14 2 C 14 0.892 13.108 0 12 0 L 4 0 z M 4 2 L 12 2 L 12 5.7109375 L 4 5.7109375 L 4 2 z M 6.5 3 C 6.223 3 6 3.223 6 3.5 C 6 3.777 6.223 4 6.5 4 L 9.5 4 C 9.777 4 10 3.777 10 3.5 C 10 3.223 9.777 3 9.5 3 L 6.5 3 z M 6.5 8 C 6.223 8 6 8.223 6 8.5 C 6 8.777 6.223 9 6.5 9 L 9.5 9 C 9.777 9 10 8.777 10 8.5 C 10 8.223 9.777 8 9.5 8 L 6.5 8 z M 11 11 L 11 16 L 16 16 L 16 11 L 11 11 z M 12 12 L 13 12 L 13 13 L 14 13 L 14 12 L 15 12 L 15 14 L 14 14 L 14 15 L 13 15 L 13 14 L 12 14 L 12 12 z " fill="#c0bfbc" />
</svg>
