<?xml version="1.0" encoding="UTF-8"?>
<svg width="128" height="128" version="1.1" viewBox="0 0 128 128.00001" xmlns="http://www.w3.org/2000/svg" xmlns:xlink="http://www.w3.org/1999/xlink">
<defs>
<linearGradient id="a">
<stop stop-color="#8f8f8f" offset="0"/>
<stop stop-color="#77767b" offset="1"/>
</linearGradient>
<linearGradient id="e" x1="4" x2="28" y1="27" y2="27" gradientTransform="matrix(4,0,0,4,0,-8)" gradientUnits="userSpaceOnUse">
<stop stop-color="#5e5c64" offset="0"/>
<stop stop-color="#9a9996" offset=".041667"/>
<stop stop-color="#5e5c64" offset=".083333"/>
<stop stop-color="#5e5c64" offset=".91667"/>
<stop stop-color="#9a9996" offset=".95833"/>
<stop stop-color="#5e5c64" offset="1"/>
</linearGradient>
<linearGradient id="d" x1="16" x2="16" y1="24" y2="21" gradientTransform="matrix(4,0,0,4,0,-4)" gradientUnits="userSpaceOnUse" xlink:href="#a"/>
<linearGradient id="c" x1="16" x2="16" y1="8" y2="5" gradientTransform="matrix(4,0,0,4,0,-4)" gradientUnits="userSpaceOnUse" xlink:href="#a"/>
<linearGradient id="b" x1="15" x2="15" y1="16" y2="13" gradientTransform="matrix(4,0,0,4,0,-4)" gradientUnits="userSpaceOnUse" xlink:href="#a"/>
</defs>
<rect x="16" y="20" width="96" height="64" ry="0" fill="#5e5c64"/>
<rect x="16" y="88" width="96" height="20" ry="4" fill="url(#e)"/>
<rect x="16" y="8" width="96" height="28" ry="4" fill="#9a9996"/>
<rect x="16" y="40" width="96" height="28" ry="0" fill="#9a9996"/>
<rect x="16" y="72" width="96" height="28" ry="4" fill="#9a9996"/>
<rect x="16" y="32" width="96" height="4" ry="0" fill="#9a9996"/>
<rect x="16" y="72" width="96" height="4" fill="#9a9996"/>
<rect x="44" y="16" width="36" height="12" ry="4" fill="#5e5c64"/>
<rect x="44" y="20" width="36" height="8" ry="4" fill="url(#c)"/>
<rect x="44" y="48" width="36" height="12" ry="4" fill="#5e5c64"/>
<rect x="44" y="52" width="36" height="8" ry="4" fill="url(#b)"/>
<rect x="44" y="80" width="36" height="12" ry="4" fill="#5e5c64"/>
<rect x="44" y="84" width="36" height="8" ry="4" fill="url(#d)"/>
<rect x="60" y="104" width="8" height="12" fill="#f6d32d"/>
<rect x="20" y="116" width="88" height="8" fill="#f6d32d"/>
<rect x="20" y="120" width="88" height="4" fill="#e5a50a"/>
</svg>
